<svg width="13" height="13" viewBox="0 0 13 13" fill="none" xmlns="http://www.w3.org/2000/svg">
<path d="M6.5001 5.57924H12.5687C12.6357 5.95312 12.6692 6.31026 12.6692 6.65067C12.6692 7.8616 12.4153 8.9428 11.9075 9.89425C11.3997 10.8457 10.6756 11.5893 9.73532 12.125C8.79503 12.6607 7.71662 12.9286 6.5001 12.9286C5.62399 12.9286 4.78972 12.7598 3.99731 12.4221C3.2049 12.0845 2.52131 11.6283 1.94653 11.0536C1.37176 10.4788 0.915562 9.7952 0.577951 9.00279C0.240339 8.21038 0.0715332 7.37611 0.0715332 6.5C0.0715332 5.62388 0.240339 4.78962 0.577951 3.99721C0.915562 3.2048 1.37176 2.5212 1.94653 1.94643C2.52131 1.37165 3.2049 0.915455 3.99731 0.577844C4.78972 0.240232 5.62399 0.0714264 6.5001 0.0714264C8.17421 0.0714264 9.61115 0.632252 10.8109 1.7539L9.06149 3.43638C8.3751 2.77232 7.52131 2.44029 6.5001 2.44029C5.78024 2.44029 5.11478 2.62165 4.50373 2.98437C3.89268 3.3471 3.40859 3.83956 3.05144 4.46177C2.6943 5.08398 2.51573 5.76339 2.51573 6.5C2.51573 7.2366 2.6943 7.91601 3.05144 8.53822C3.40859 9.16043 3.89268 9.6529 4.50373 10.0156C5.11478 10.3783 5.78024 10.5597 6.5001 10.5597C6.9856 10.5597 7.43202 10.4927 7.83939 10.3588C8.24676 10.2249 8.58158 10.0575 8.84385 9.85658C9.10613 9.65569 9.33493 9.42689 9.53024 9.1702C9.72555 8.9135 9.86924 8.67076 9.96132 8.44196C10.0534 8.21317 10.1162 7.99553 10.1497 7.78906H6.5001V5.57924Z" fill="white"/>
</svg>
