<svg width="13" height="13" viewBox="0 0 13 13" fill="none" xmlns="http://www.w3.org/2000/svg">
<path d="M9.8375 2.4125C9.68916 2.4125 9.54416 2.45649 9.42082 2.5389C9.29749 2.62131 9.20136 2.73844 9.14459 2.87549C9.08782 3.01253 9.07297 3.16333 9.10191 3.30882C9.13085 3.4543 9.20228 3.58794 9.30717 3.69283C9.41206 3.79772 9.5457 3.86915 9.69118 3.89809C9.83667 3.92703 9.98747 3.91218 10.1245 3.85541C10.2616 3.79864 10.3787 3.70251 10.4611 3.57918C10.5435 3.45584 10.5875 3.31084 10.5875 3.1625C10.5875 2.96359 10.5085 2.77282 10.3678 2.63217C10.2272 2.49152 10.0364 2.4125 9.8375 2.4125ZM12.7125 3.925C12.7003 3.40644 12.6032 2.89338 12.425 2.40625C12.2661 1.98946 12.0187 1.61205 11.7 1.3C11.3905 0.979641 11.0122 0.73386 10.5938 0.58125C10.1079 0.3976 9.59428 0.298256 9.075 0.2875C8.4125 0.25 8.2 0.25 6.5 0.25C4.8 0.25 4.5875 0.25 3.925 0.2875C3.40572 0.298256 2.89209 0.3976 2.40625 0.58125C1.98855 0.735405 1.61058 0.980975 1.3 1.3C0.979641 1.60949 0.73386 1.98777 0.58125 2.40625C0.3976 2.89209 0.298256 3.40572 0.2875 3.925C0.25 4.5875 0.25 4.8 0.25 6.5C0.25 8.2 0.25 8.4125 0.2875 9.075C0.298256 9.59428 0.3976 10.1079 0.58125 10.5938C0.73386 11.0122 0.979641 11.3905 1.3 11.7C1.61058 12.019 1.98855 12.2646 2.40625 12.4187C2.89209 12.6024 3.40572 12.7017 3.925 12.7125C4.5875 12.75 4.8 12.75 6.5 12.75C8.2 12.75 8.4125 12.75 9.075 12.7125C9.59428 12.7017 10.1079 12.6024 10.5938 12.4187C11.0122 12.2661 11.3905 12.0204 11.7 11.7C12.0202 11.3891 12.2677 11.0114 12.425 10.5938C12.6032 10.1066 12.7003 9.59356 12.7125 9.075C12.7125 8.4125 12.75 8.2 12.75 6.5C12.75 4.8 12.75 4.5875 12.7125 3.925ZM11.5875 9C11.5829 9.39673 11.5111 9.78981 11.375 10.1625C11.2752 10.4345 11.1149 10.6803 10.9062 10.8813C10.7035 11.0878 10.4583 11.2478 10.1875 11.35C9.81481 11.4861 9.42173 11.558 9.025 11.5625C8.4 11.5938 8.16875 11.6 6.525 11.6C4.88125 11.6 4.65 11.6 4.025 11.5625C3.61306 11.5702 3.20287 11.5068 2.8125 11.375C2.55361 11.2675 2.3196 11.108 2.125 10.9062C1.91756 10.7055 1.75928 10.4595 1.6625 10.1875C1.50991 9.80947 1.42528 9.40746 1.4125 9C1.4125 8.375 1.375 8.14375 1.375 6.5C1.375 4.85625 1.375 4.625 1.4125 4C1.4153 3.59441 1.48934 3.19247 1.63125 2.8125C1.74128 2.54869 1.91017 2.31354 2.125 2.125C2.31488 1.91011 2.54955 1.73943 2.8125 1.625C3.19347 1.48753 3.595 1.41567 4 1.4125C4.625 1.4125 4.85625 1.375 6.5 1.375C8.14375 1.375 8.375 1.375 9 1.4125C9.39673 1.41705 9.78981 1.4889 10.1625 1.625C10.4465 1.73041 10.7014 1.90178 10.9062 2.125C11.1111 2.31699 11.2711 2.55171 11.375 2.8125C11.5139 3.19308 11.5858 3.59486 11.5875 4C11.6187 4.625 11.625 4.85625 11.625 6.5C11.625 8.14375 11.6187 8.375 11.5875 9ZM6.5 3.29375C5.86613 3.29499 5.24685 3.48408 4.72041 3.83714C4.19397 4.19019 3.78399 4.69137 3.54227 5.27735C3.30056 5.86332 3.23795 6.50779 3.36237 7.12933C3.48679 7.75087 3.79265 8.32158 4.2413 8.76936C4.68995 9.21714 5.26126 9.52188 5.88304 9.64509C6.50482 9.7683 7.14917 9.70444 7.73467 9.46159C8.32017 9.21873 8.82055 8.80777 9.17258 8.28065C9.52461 7.75352 9.7125 7.13387 9.7125 6.5C9.71333 6.07819 9.63075 5.66038 9.46952 5.2706C9.3083 4.88082 9.0716 4.52676 8.77304 4.22878C8.47449 3.93081 8.11997 3.6948 7.72987 3.53433C7.33978 3.37386 6.92181 3.2921 6.5 3.29375ZM6.5 8.58125C6.08837 8.58125 5.68598 8.45919 5.34372 8.2305C5.00146 8.00181 4.7347 7.67676 4.57718 7.29646C4.41965 6.91616 4.37844 6.49769 4.45874 6.09397C4.53905 5.69025 4.73727 5.3194 5.02833 5.02833C5.3194 4.73727 5.69025 4.53905 6.09397 4.45874C6.49769 4.37844 6.91616 4.41965 7.29646 4.57718C7.67676 4.7347 8.00181 5.00146 8.2305 5.34372C8.45919 5.68598 8.58125 6.08837 8.58125 6.5C8.58125 6.77331 8.52742 7.04395 8.42282 7.29646C8.31823 7.54897 8.16493 7.7784 7.97167 7.97167C7.7784 8.16493 7.54897 8.31823 7.29646 8.42282C7.04395 8.52742 6.77331 8.58125 6.5 8.58125Z" fill="white"/>
</svg>
